#!OML:ASF F:\VICON\USERDATA\INSTALL\Justin_Nancy\Justin_Nancy.ASF
:FULLY-SPECIFIED
:DEGREES
79
root 12.9363 17.3205 -15.2633 2.06215 3.43118 5.14515
lowerback 6.15553 -2.56461 -6.00538
upperback 0.271474 -3.78152 1.75634
thorax -2.66099 -1.80432 5.50068
lowerneck -17.5171 -3.57342 -9.52423
upperneck 21.8704 -3.59912 5.2433
head 10.1486 -1.85116 2.94274
rclavicle -1.40143e-014 7.95139e-015
rhumerus -33.6494 -19.623 -76.2346
rradius 26.4567
rwrist 11.0827
rhand -13.1966 7.65636
rfingers 7.12502
rthumb 12.9037 -21.9247
lclavicle -1.40143e-014 7.95139e-015
lhumerus -19.8621 5.11659 85.6377
lradius 32.108
lwrist -7.17271
lhand -14.7132 27.5029
lfingers 7.12502
lthumb 11.4413 57.1708
rfemur -28.5177 -0.340401 18.6966
rtibia 15.9038
rfoot -5.33699 -5.84717
rtoes -15.9406
lfemur 5.19521 2.02129 -30.6943
ltibia 18.7067
lfoot -16.8283 -7.4664
ltoes 3.19374
80
root 12.9417 17.3171 -15.1202 2.09259 3.4009 5.29409
lowerback 6.237 -2.52049 -6.12474
upperback 0.156716 -3.74079 1.68868
thorax -2.82887 -1.77318 5.50391
lowerneck -17.3065 -3.62469 -9.5683
upperneck 21.887 -3.70377 5.33275
head 10.1262 -1.8959 2.96886
rclavicle 1.39149e-015 -1.59028e-015
rhumerus -33.8955 -19.867 -76.042
rradius 26.2321
rwrist 11.3153
rhand -13.1566 8.54435
rfingers 7.12502
rthumb 12.9422 -21.0343
lclavicle 1.39149e-015 -1.59028e-015
lhumerus -20.0294 5.0104 85.6644
lradius 32.1088
lwrist -7.20977
lhand -15.0535 26.3493
lfingers 7.12502
lthumb 11.1132 56.035
rfemur -28.52 -0.641583 18.9096
rtibia 16.5715
rfoot -5.08229 -5.52153
rtoes -14.3254
lfemur 5.67018 1.90553 -30.8304
ltibia 18.9271
lfoot -16.8719 -7.48109
ltoes 1.39
81
root 12.9429 17.31 -14.9875 2.28796 3.43323 5.46382
lowerback 6.30944 -2.50501 -6.33494
upperback -0.0381417 -3.74585 1.65805
thorax -3.061 -1.75844 5.60278
lowerneck -17.2974 -3.6135 -9.35692
upperneck 22.0086 -3.71484 5.18032
head 10.1614 -1.90269 2.87913
rclavicle -1.5704e-014 -1.51076e-014
rhumerus -34.2708 -19.9864 -75.7928
rradius 26.1504
rwrist 11.5411
rhand -13.0387 9.26159
rfingers 7.12502
rthumb 13.0558 -20.3098
lclavicle -1.5704e-014 -1.51076e-014
lhumerus -20.1708 4.92707 85.7107
lradius 32.12
lwrist -7.12362
lhand -15.4317 22.2302
lfingers 7.12502
lthumb 10.7483 51.9352
rfemur -28.8436 -0.632177 18.9419
rtibia 17.5797
rfoot -4.70342 -5.41183
rtoes -12.8886
lfemur 5.89332 1.7482 -30.9694
ltibia 19.1808
lfoot -16.7814 -7.51384
ltoes -0.669763
82
root 12.9447 17.2943 -14.8523 2.33381 3.43182 5.58936
lowerback 6.3953 -2.4627 -6.42423
upperback -0.119657 -3.70561 1.60261
thorax -3.19825 -1.72944 5.6006
lowerneck -17.2324 -3.63669 -9.28938
upperneck 21.9684 -3.78451 5.22892
head 10.1395 -1.92381 2.87532
rclavicle 2.67365e-014 -1.27222e-014
rhumerus -34.5897 -20.0339 -75.6859
rradius 26.1734
rwrist 11.7489
rhand -13.2189 9.92592
rfingers 7.12502
rthumb 12.8822 -19.6565
lclavicle 2.67365e-014 -1.27222e-014
lhumerus -20.2224 4.7108 85.7684
lradius 32.2141
lwrist -6.9363
lhand -14.9834 25.186
lfingers 7.12502
lthumb 11.1808 54.8681
rfemur -28.8407 -0.671806 19.0998
rtibia 18.5375
rfoot -4.27334 -5.3485
rtoes -12.8691
lfemur 6.05681 1.67249 -31.0344
ltibia 19.6073
lfoot -16.5176 -7.77676
ltoes 0.0284194
83
root 12.9459 17.2746 -14.7027 2.26557 3.4307 5.69357
lowerback 6.2717 -2.43169 -6.5017
upperback 0.0334551 -3.65832 1.58514
thorax -2.97214 -1.71822 5.60926
lowerneck -17.3789 -3.69021 -9.46858
upperneck 21.9404 -3.82193 5.34604
head 10.1669 -1.93992 2.94042
rclavicle 4.45278e-014 5.56597e-015
rhumerus -34.4312 -20.5616 -75.4743
rradius 25.9024
rwrist 12.3535
rhand -13.2474 10.7842
rfingers 7.12502
rthumb 12.8547 -18.8
lclavicle 4.45278e-014 5.56597e-015
lhumerus -20.0735 4.73555 85.912
lradius 32.3372
lwrist -6.99327
lhand -14.9685 24.5009
lfingers 7.12502
lthumb 11.1952 54.1822
rfemur -28.5176 -0.703751 19.2901
rtibia 19.409
rfoot -4.06921 -5.3263
rtoes -12.5708
lfemur 6.2525 1.60737 -31.0539
ltibia 20.11
lfoot -16.1138 -8.22378
ltoes 1.8056
84
root 12.9418 17.2682 -14.5446 2.18935 3.62458 5.70104
lowerback 6.16578 -2.51673 -6.57045
upperback 0.117715 -3.76608 1.62517
thorax -2.80233 -1.7802 5.68756
lowerneck -17.6836 -3.65045 -9.50904
upperneck 22.1956 -3.73433 5.35863
head 10.3102 -1.9006 2.96602
rclavicle 6.26172e-015 6.36111e-015
rhumerus -34.3373 -20.9164 -75.3237
rradius 25.6089
rwrist 12.7053
rhand -13.1337 10.8419
rfingers 7.12502
rthumb 12.9644 -18.7354
lclavicle 6.26172e-015 6.36111e-015
lhumerus -20.2748 5.09712 85.9424
lradius 32.6003
lwrist -7.22364
lhand -14.9004 23.0067
lfingers 7.12502
lthumb 11.2609 52.6844
rfemur -28.1648 -0.584793 19.4817
rtibia 20.4126
rfoot -4.12258 -5.31033
rtoes -12.4644
lfemur 6.77471 1.43931 -30.9021
ltibia 20.4175
lfoot -15.8391 -8.61789
ltoes -1.03622
85
root 12.9315 17.273 -14.3875 2.05929 4.10574 5.70658
lowerback 6.2114 -2.66078 -6.65839
upperback 0.190015 -3.96445 1.65495
thorax -2.71575 -1.88352 5.78118
lowerneck -17.762 -3.52791 -9.64264
upperneck 22.5054 -3.59447 5.62884
head 10.4325 -1.81907 3.11124
rclavicle -4.09496e-014 -2.54444e-014
rhumerus -34.3533 -20.8477 -75.3867
rradius 25.5979
rwrist 12.5792
rhand -13.1285 10.0869
rfingers 7.12502
rthumb 12.9693 -19.49
lclavicle -4.09496e-014 -2.54444e-014
lhumerus -20.4192 5.3648 85.9389
lradius 32.6475
lwrist -7.53961
lhand -14.598 22.9163
lfingers 7.12502
lthumb 11.5525 52.5779
rfemur -27.6418 -0.261354 19.5504
rtibia 21.2932
rfoot -4.2248 -5.3691
rtoes -10.4029
lfemur 7.42137 1.13503 -30.6926
ltibia 20.6193
lfoot -15.3173 -9.05776
ltoes -4.67672
